<svg width="270" height="180" xmlns="http://www.w3.org/2000/svg">
 <!-- Created with Method Draw - http://github.com/duopixel/Method-Draw/ -->
 <g>
  <title>background</title>
  <rect fill="#fff" id="canvas_background" height="182" width="272" y="-1" x="-1"/>
 </g>
 <g>
  <title>Layer 1</title>
  <rect stroke="null" id="svg_1" height="93.68421" width="117.45454" y="-0.38068" x="-0.81818" fill-opacity="null" stroke-width="1.5" fill="#0000d6"/>
  <rect id="svg_2" height="13" width="153.45455" y="-0.01705" x="116.63636" stroke-width="1.5" fill="#ff0000"/>
  <rect id="svg_3" height="13" width="153.45455" y="25.92631" x="116.63636" stroke-width="1.5" fill="#ff0000"/>
  <rect id="svg_4" height="13" width="153.45455" y="54.15785" x="116.63636" stroke-width="1.5" fill="#ff0000"/>
  <rect id="svg_5" height="13" width="153.45455" y="80.40005" x="116.63636" stroke-width="1.5" fill="#ff0000"/>
  <rect id="svg_6" height="13" width="270.54545" y="109.07447" x="-0.45454" stroke-width="1.5" fill="#ff0000"/>
  <rect id="svg_7" height="13" width="270.54545" y="137.44054" x="-0.45454" stroke-width="1.5" fill="#ff0000"/>
  <rect id="svg_8" height="13" width="270.54545" y="166.53354" x="-0.45454" stroke-width="1.5" fill="#ff0000"/>
  <path id="svg_9" d="m6.76727,10.07285l5.13922,0l1.58806,-5.0003l1.58806,5.0003l5.13922,0l-4.15771,3.09032l1.58814,5.0003l-4.15771,-3.0904l-4.15771,3.0904l1.58814,-5.0003l-4.15771,-3.09032z" stroke-width="1.5" fill="#ffffff"/>
  <path id="svg_12" d="m23.53008,10.43649l5.13922,0l1.58806,-5.0003l1.58805,5.0003l5.13922,0l-4.15771,3.09032l1.58814,5.00029l-4.1577,-3.0904l-4.15771,3.0904l1.58814,-5.00029l-4.15771,-3.09032z" stroke-width="1.5" fill="#ffffff"/>
  <path id="svg_13" d="m39.14908,10.43649l5.13922,0l1.58806,-5.0003l1.58805,5.0003l5.13922,0l-4.15771,3.09032l1.58814,5.00029l-4.1577,-3.0904l-4.15771,3.0904l1.58814,-5.00029l-4.15771,-3.09032z" stroke-width="1.5" fill="#ffffff"/>
  <path id="svg_14" d="m54.76727,10.43649l5.13922,0l1.58806,-5.0003l1.58805,5.0003l5.13922,0l-4.15771,3.09032l1.58814,5.00029l-4.1577,-3.0904l-4.15771,3.0904l1.58814,-5.00029l-4.15771,-3.09032z" stroke-width="1.5" fill="#ffffff"/>
  <path id="svg_15" d="m71.88371,10.43649l5.13922,0l1.58806,-5.0003l1.58805,5.0003l5.13922,0l-4.15771,3.09032l1.58814,5.00029l-4.1577,-3.0904l-4.15771,3.0904l1.58814,-5.00029l-4.15771,-3.09032z" stroke-width="1.5" fill="#ffffff"/>
  <path id="svg_16" d="m89.72761,10.43649l5.13922,0l1.58806,-5.0003l1.58805,5.0003l5.13922,0l-4.15771,3.09032l1.58814,5.00029l-4.1577,-3.0904l-4.15771,3.0904l1.58814,-5.00029l-4.15771,-3.09032z" stroke-width="1.5" fill="#ffffff"/>
  <path id="svg_17" d="m16.22182,28.61831l5.13922,0l1.58806,-5.0003l1.58805,5.0003l5.13922,0l-4.15771,3.09032l1.58814,5.00029l-4.1577,-3.0904l-4.15771,3.0904l1.58814,-5.00029l-4.15771,-3.09032z" stroke-width="1.5" fill="#ffffff"/>
  <path id="svg_18" d="m32.62099,28.61831l5.13922,0l1.58806,-5.0003l1.58805,5.0003l5.13922,0l-4.15771,3.09032l1.58814,5.00029l-4.1577,-3.0904l-4.15771,3.0904l1.58814,-5.00029l-4.15771,-3.09032z" stroke-width="1.5" fill="#ffffff"/>
  <path id="svg_19" d="m48.60363,28.61831l5.13922,0l1.58806,-5.0003l1.58805,5.0003l5.13922,0l-4.15771,3.09032l1.58814,5.00029l-4.1577,-3.0904l-4.15771,3.0904l1.58814,-5.00029l-4.15771,-3.09032z" stroke-width="1.5" fill="#ffffff"/>
  <path id="svg_20" d="m64.22182,28.61831l5.13922,0l1.58806,-5.0003l1.58805,5.0003l5.13922,0l-4.15771,3.09032l1.58814,5.00029l-4.1577,-3.0904l-4.15771,3.0904l1.58814,-5.00029l-4.15771,-3.09032z" stroke-width="1.5" fill="#ffffff"/>
  <path id="svg_21" d="m81.33826,28.61831l5.13922,0l1.58806,-5.0003l1.58805,5.0003l5.13922,0l-4.15771,3.09032l1.58814,5.00029l-4.1577,-3.0904l-4.15771,3.0904l1.58814,-5.00029l-4.15771,-3.09032z" stroke-width="1.5" fill="#ffffff"/>
  <path id="svg_22" d="m99.18216,28.61831l5.13922,0l1.58806,-5.0003l1.58805,5.0003l5.13922,0l-4.15771,3.09032l1.58814,5.00029l-4.1577,-3.0904l-4.15771,3.0904l1.58814,-5.00029l-4.15771,-3.09032z" stroke-width="1.5" fill="#ffffff"/>
  <path id="svg_25" d="m6.76727,45.35307l5.13922,0l1.58806,-5.00029l1.58805,5.00029l5.13922,0l-4.15771,3.09032l1.58814,5.0003l-4.1577,-3.0904l-4.15771,3.0904l1.58814,-5.0003l-4.15771,-3.09032z" stroke-width="1.5" fill="#ffffff"/>
  <path id="svg_26" d="m23.53008,45.71671l5.13922,0l1.58806,-5.0003l1.58805,5.0003l5.13922,0l-4.15771,3.09032l1.58814,5.00029l-4.1577,-3.0904l-4.15771,3.0904l1.58814,-5.00029l-4.15771,-3.09032z" stroke-width="1.5" fill="#ffffff"/>
  <path id="svg_27" d="m39.14908,45.71671l5.13922,0l1.58806,-5.0003l1.58805,5.0003l5.13922,0l-4.15771,3.09032l1.58814,5.00029l-4.1577,-3.0904l-4.15771,3.0904l1.58814,-5.00029l-4.15771,-3.09032z" stroke-width="1.5" fill="#ffffff"/>
  <path id="svg_28" d="m54.76727,45.71671l5.13922,0l1.58806,-5.0003l1.58805,5.0003l5.13922,0l-4.15771,3.09032l1.58814,5.00029l-4.1577,-3.0904l-4.15771,3.0904l1.58814,-5.00029l-4.15771,-3.09032z" stroke-width="1.5" fill="#ffffff"/>
  <path id="svg_29" d="m71.88371,45.71671l5.13922,0l1.58806,-5.0003l1.58805,5.0003l5.13922,0l-4.15771,3.09032l1.58814,5.00029l-4.1577,-3.0904l-4.15771,3.0904l1.58814,-5.00029l-4.15771,-3.09032z" stroke-width="1.5" fill="#ffffff"/>
  <path id="svg_30" d="m89.72761,45.71671l5.13922,0l1.58806,-5.0003l1.58805,5.0003l5.13922,0l-4.15771,3.09032l1.58814,5.00029l-4.1577,-3.0904l-4.15771,3.0904l1.58814,-5.00029l-4.15771,-3.09032z" stroke-width="1.5" fill="#ffffff"/>
  <path id="svg_31" d="m13.67636,63.31121l5.13922,0l1.58806,-5.00029l1.58805,5.00029l5.13922,0l-4.15771,3.09032l1.58814,5.0003l-4.1577,-3.0904l-4.15771,3.0904l1.58814,-5.0003l-4.15771,-3.09032z" stroke-width="1.5" fill="#ffffff"/>
  <path id="svg_32" d="m30.43917,63.67485l5.13922,0l1.58806,-5.0003l1.58805,5.0003l5.13922,0l-4.15771,3.09032l1.58814,5.00029l-4.1577,-3.0904l-4.15771,3.0904l1.58814,-5.00029l-4.15771,-3.09032z" stroke-width="1.5" fill="#ffffff"/>
  <path id="svg_33" d="m46.05817,63.67485l5.13922,0l1.58806,-5.0003l1.58805,5.0003l5.13922,0l-4.15771,3.09032l1.58814,5.00029l-4.1577,-3.0904l-4.15771,3.0904l1.58814,-5.00029l-4.15771,-3.09032z" stroke-width="1.5" fill="#ffffff"/>
  <path id="svg_34" d="m61.31272,63.67485l5.13922,0l1.58806,-5.0003l1.58805,5.0003l5.13922,0l-4.15771,3.09032l1.58814,5.00029l-4.1577,-3.0904l-4.15771,3.0904l1.58814,-5.00029l-4.15771,-3.09032z" stroke-width="1.5" fill="#ffffff"/>
  <path id="svg_35" d="m77.70189,63.67485l5.13922,0l1.58806,-5.0003l1.58805,5.0003l5.13922,0l-4.15771,3.09032l1.58814,5.00029l-4.1577,-3.0904l-4.15771,3.0904l1.58814,-5.00029l-4.15771,-3.09032z" stroke-width="1.5" fill="#ffffff"/>
  <path id="svg_36" d="m94.81852,63.67485l5.13922,0l1.58806,-5.0003l1.58805,5.0003l5.13922,0l-4.15771,3.09032l1.58814,5.00029l-4.1577,-3.0904l-4.15771,3.0904l1.58814,-5.00029l-4.15771,-3.09032z" stroke-width="1.5" fill="#ffffff"/>
  <path id="svg_37" d="m6.22538,79.78179l5.13922,0l1.58806,-5.00029l1.58805,5.00029l5.13922,0l-4.15771,3.09032l1.58814,5.0003l-4.1577,-3.0904l-4.15771,3.0904l1.58814,-5.0003l-4.15771,-3.09032z" stroke-width="1.5" fill="#ffffff"/>
  <path id="svg_38" d="m22.98819,80.14543l5.13922,0l1.58806,-5.0003l1.58805,5.0003l5.13922,0l-4.15771,3.09032l1.58814,5.00029l-4.1577,-3.0904l-4.15771,3.0904l1.58814,-5.00029l-4.15771,-3.09032z" stroke-width="1.5" fill="#ffffff"/>
  <path id="svg_39" d="m38.60719,80.14543l5.13922,0l1.58806,-5.0003l1.58805,5.0003l5.13922,0l-4.15771,3.09032l1.58814,5.00029l-4.1577,-3.0904l-4.15771,3.0904l1.58814,-5.00029l-4.15771,-3.09032z" stroke-width="1.5" fill="#ffffff"/>
  <path id="svg_40" d="m53.86174,80.14543l5.13922,0l1.58806,-5.0003l1.58805,5.0003l5.13922,0l-4.15771,3.09032l1.58814,5.00029l-4.1577,-3.0904l-4.15771,3.0904l1.58814,-5.00029l-4.15771,-3.09032z" stroke-width="1.5" fill="#ffffff"/>
  <path id="svg_41" d="m70.25091,80.14543l5.13922,0l1.58806,-5.0003l1.58805,5.0003l5.13922,0l-4.15771,3.09032l1.58814,5.00029l-4.1577,-3.0904l-4.15771,3.0904l1.58814,-5.00029l-4.15771,-3.09032z" stroke-width="1.5" fill="#ffffff"/>
  <path id="svg_42" d="m87.36754,80.14543l5.13922,0l1.58806,-5.0003l1.58805,5.0003l5.13922,0l-4.15771,3.09032l1.58814,5.00029l-4.1577,-3.0904l-4.15771,3.0904l1.58814,-5.00029l-4.15771,-3.09032z" stroke-width="1.5" fill="#ffffff"/>
 </g>
</svg>